<svg width="22" height="16" viewBox="0 0 22 16" fill="none" xmlns="http://www.w3.org/2000/svg">
<path fill-rule="evenodd" clip-rule="evenodd" d="M15.2966 11.5383C15.3775 13.3704 13.8989 14.9196 11.9944 14.9975C11.8541 15.0034 5.01507 14.9896 5.01507 14.9896C3.11972 15.1335 1.46091 13.7715 1.31141 11.9463C1.30014 11.8103 1.30322 4.47219 1.30322 4.47219C1.21925 2.63815 2.6958 1.08499 4.60139 1.00418C4.74372 0.997278 11.5735 1.01009 11.5735 1.01009C13.4781 0.868176 15.142 2.24001 15.2895 4.07405C15.2997 4.2061 15.2966 11.5383 15.2966 11.5383Z" stroke="#97989B" stroke-width="1.5" stroke-linecap="round" stroke-linejoin="round"/>
<path d="M15.2998 5.97984L18.5928 3.28484C19.4088 2.61684 20.6328 3.19884 20.6318 4.25184L20.6198 11.6008C20.6188 12.6538 19.3938 13.2308 18.5798 12.5628L15.2998 9.86784" stroke="#97989B" stroke-width="1.5" stroke-linecap="round" stroke-linejoin="round"/>
</svg>
